<svg xmlns="http://www.w3.org/2000/svg" viewBox="0 0 64 64">
  <title>Support Ticketing</title>
  <defs>
    <linearGradient id="brand" x1="0" y1="0" x2="1" y2="1">
      <stop offset="0" stop-color="#4c6ef5"/>
      <stop offset="1" stop-color="#7950f2"/>
    </linearGradient>
  </defs>
  <rect width="64" height="64" rx="15" fill="url(#brand)"/>
  <g transform="translate(15 15) scale(1.4167)" fill="none" stroke="#fff" stroke-width="2" stroke-linecap="round" stroke-linejoin="round">
    <path d="M4 14v-3a8 8 0 1 1 16 0v3"/>
    <path d="M18 19c0 1.657 -2.686 3 -6 3"/>
    <path d="M4 14a2 2 0 0 1 2 -2h1a2 2 0 0 1 2 2v3a2 2 0 0 1 -2 2h-1a2 2 0 0 1 -2 -2v-3"/>
    <path d="M15 14a2 2 0 0 1 2 -2h1a2 2 0 0 1 2 2v3a2 2 0 0 1 -2 2h-1a2 2 0 0 1 -2 -2v-3"/>
  </g>
</svg>
